<?xml version="1.0" encoding="utf-8"?>
<!-- Generator: Adobe Illustrator 22.0.1, SVG Export Plug-In . SVG Version: 6.00 Build 0)  -->
<svg version="1.1" id="Camada_1" xmlns="http://www.w3.org/2000/svg" xmlns:xlink="http://www.w3.org/1999/xlink" x="0px" y="0px"
	 viewBox="0 0 1763 918" style="enable-background:new 0 0 1763 918;" xml:space="preserve">
<style type="text/css">
	.st0{fill:#3B3A32;}
	.st1{fill:#F7EC1A;}
	.st2{display:none;}
	.st3{display:inline;fill:#35458A;}
	.st4{display:inline;fill:#F7EC1A;}
</style>
<path class="st0" d="M516.5,794.1c-6.7,27,2,52.6-22.8,71.3H349.3c-31.7-31.2-66.4-65.4-104.8-103.2c-10.6,31.2-2.6,57.8-7.2,83.5
	c-6,14.6-16.9,22.1-33.3,22c-46.9-0.2-93.7-0.1-136.9-0.1c-13.9-6.6-20.8-14.8-27.5-24.1c-0.7-3-2.3-6.5-2.3-10
	c-0.2-113.1-0.3-226.3-0.5-339.4v-3.6c2.3-41.3,11.4-51.7,52.6-59.7C60.2,361.4,31.2,292.1,8,223.1c1.7-12.7,6.4-20.9,13.8-30
	c25.7-8.7,50-24.9,80.8-31.6c13.4,5.9,28.6,12.6,43.1,19c18.2-10.1,12.6-32.4,26.2-43.5c26-17.9,56.2-25.9,85.8-34.8
	c22.8,8.8,31.9,28.8,42.4,50.8c51.1-36.4,102.3-63.7,163.3-22.9c23.5-17.9,42.7-42.4,74.2-49.8c5.2-39.1,29.6-53,65.6-50.9
	c13.4,0.8,25.1-9.2,42.6-4.4c15,5.3,22.9,21.6,32,40.7c105.9-13.4,212.6-4.6,318.4-7.6c9.8,7.6,18.3,14.1,25.5,19.7
	c64-17.3,125.8-22.1,189.7,9c83.7,1.8,83.7,1.8,136.3,49.1c15,0.1,28.4-10.1,43.7-11.7c14.2-1.5,28.7-1.4,43.7-2.1
	c6.9-8.7,13.5-16.9,19.9-24.9c37.9-9.7,68.5,9.4,95.2,17.8c25.7,20.6,11.9,41.7,11.5,63.2c63.5,7.4,127.6,14.5,143.3,97
	c-8.4,31.8-19.1,66.3-14.7,100.7c-13.2,19.4-28.8,32.7-43.7,46.6c-8.5,7.4-20.7,1.6-30.2,8c21.4,12.4,44.9,18,65.2,31.2
	c25.4,16.6,39.9,37.4,37.5,68.6c-0.8,10.8-0.7,21.7,0,32.5c1.8,28-1.5,54.9-15.6,78.9c6.2,22.2,21.1,38.5,25.4,60.6
	c10.7,55.5-16.8,119.6-66.8,146.9c-60.8,33.1-124.2,31.5-188.7,14.3c-10.4-2.8-20.5-6.6-32.8-10.7c-17.8,14.8-40,15.6-63.1,15.2
	c-44.5-0.8-89.1,0-133.6-0.4c-92-0.7-149.7-44.7-177.1-134c-1.4-4.5-4.2-8.6-6.1-12.3c-9-8.2-21.8-4-30.3-12
	c-7.4-6.9-16.1-10.5-28.6-5.3c-6.3,20.1-11.8,41.7-11.6,64.5c0.2,20.5-0.4,40.9,0.1,61.4c0.4,15.9-4.7,28.2-21.8,36.6H832.2
	c-9.4-1.1-15.5-13.2-30.6-13.3C699.6,886.5,598.8,895.1,516.5,794.1L516.5,794.1z M347,471.3c0,29.2,0.8,56.5-0.2,83.8
	c-1,25.9,4.5,52.4-4.7,81.8C288.2,579,237.6,524.5,186.3,469.2c-36.5,1.5-72.3-2.2-112,2.8c0.2,120.3-1.1,239.6,0.8,359.2h129.1
	V661.8c57.5,61.6,108.9,116.7,158.5,169.9h114.5c-0.4-121.2,1.1-240.6-1.1-360.3C431.5,471.3,391.2,471.3,347,471.3L347,471.3z
	 M933.4,348.7c20.3-9,38.7-17.1,64.5-17.6c-16.9-16-24.8-32.1-33.1-47.2c-22-9.9-42.6-14-66.6-10.1c-53.2,8.8-78.2-7.3-101-58.6
	c-2.8-6.2-4.1-14.4-14.5-14.4c-5.9,20.8,2.1,43.1-5.3,64.1c-12,13.9-27.8,16.9-45.4,17.2c-26.3,0.3-52.3,1.9-78.7,5.5
	c-42.2,5.8-85,18.3-129.7,2.5c-17.5,20.3-40.6,28.1-66.9,28.8c-14.6,0.4-27.9,6.8-41.2,12.3c-8.9,3.6-17.3,9.6-27.3,8.4
	c-30.5-3.9-56,10.7-82.6,21.3c-15.6,6.2-30.9,13.3-47.8,14.9c-13.8,0.4-21-17.8-38.6-11.8c-12.8,10.6-11.7,34.7-32.7,42.2
	c-17.7,6.3-34.5,15.2-51.6,22.9l0.9,5.1h71.6c30.8,33.4,63.9,69.4,99.2,107.7c11.4-34.3-6.4-69.1,18.7-102.3
	c57.5-8,118.2-10.5,179.8,2.5c15.6,48.1,2.1,94.4,11.1,144.3c39.7-44.6,82.7-72.1,141.5-73.9c60.1-1.8,104.9,26.2,150.8,65.7
	c-1.6-31.6,7.6-53.6,38.2-66.9c-17.5-7.1-29.9-6.9-40.6-3.9c-28.8,8.3-56.8,3.7-85.3-0.5c-30.8-4.5-63-31.4-69.6-59.8
	c-8.8-38.2,6.4-81.7,35.1-99.3c9.2-5.6,19.2-9.9,29.4-15.1c9.9-7.8,13.8-22.5,30.8-27.9c20.6-0.8,44.5-3,63.7,1.1
	c17.2,7.8,19.1,23.5,33.1,33.2C872.7,324.2,901.7,338.3,933.4,348.7L933.4,348.7z M1401.3,833.5V466.3c-36.4-3.4-70.7-2.9-106.1-0.5
	c-7.9,28.1,1.7,56.3-6.7,83.3c-23.8,2.5-46.2-4.2-69.1-1.4c-73.4,8.9-121,58.6-123.8,131.2c-2.9,74.7,43.7,139.7,112.9,150.3
	C1271.5,838.7,1335.3,832.5,1401.3,833.5L1401.3,833.5z M1036.4,510.1c30.6,4.9,61,14,88.7,34.6c38.5-28.9,84.3-31.3,126.4-35.2
	c9.8-21.7,2.1-40.6,8.5-58.1c6.7-9.8,14.4-18.8,28.5-24.1c30.3,0,62.7,0.4,95.2-0.1c20.5-0.3,37.8,5.5,54.1,26.9
	c4.2,4-4.2,17,5.8,27.2c20.4-21,44.9-34.8,72.8-43.5c26.7-8.3,54.4-10.1,86.2-13c-38.9-31.9-86.2-35.6-122.1-61.9
	c-2.5-1.8-7.2-0.4-10.6-1.3c-46.2-12.4-94-20.3-134.9-51.6c-20,9-40.9,11.5-62.2,2.5c-29.8-12.6-60.9-9.4-90.6-7.5
	c-19.4,14.9-32,37.2-56.3,40.5c-22.2,3-45,2.5-69.5,3.7c-1.7,27.3-4.6,52.3,2,76.8c6.9,25.5,3.1,47.4-15.5,66.4
	C1039,496.6,1033.9,500.6,1036.4,510.1L1036.4,510.1z M1568,729.5c-41.4,35.7-80.4,6.3-121.2-8.6c-2.3,31.4-2.9,62.2,0.3,91.9
	c21.5,16.3,45.8,20.3,69.2,23.5c42,5.8,84.2,5.1,123.3-15.2c64.3-33.4,76.9-110.3,26.6-159.9c-12.1-11.9-26.4-20.8-40.8-29.5
	c-13.4-8.1-27.1-15.6-40-24.4c-12.5-8.5-22.2-19-14.5-40.1c44.6-30,73.8,14,110.4,30.4c0.7-32.3,2.7-62.1-1.2-92.7
	c-50.5-39.7-104.8-52.3-165.7-29.2c-70.7,26.8-98,131.9-23.6,184.1c16.7,11.7,34.4,21.9,51.4,33.3
	C1553.9,700.9,1567.6,707.6,1568,729.5L1568,729.5z M800.9,708.1c3-54.4-5.3-84-29.9-113c-37.2-43.8-97.8-60-154-41
	c-55.7,18.8-92.5,69.9-94.7,131.8c-2.2,59.6,31.5,116.7,85.3,138.7c66.2,27.1,130.7,16.7,193.8-11.1c0.9-24.5,3.5-45.8-1.4-67.4
	c-13.8-2.1-23.8,6.1-35.1,8.9c-30.5,7.8-61,14.2-92.2,4.3c-26.7-8.5-35.2-20.6-34.7-51.2H800.9L800.9,708.1z M1097.3,573.9
	c-51.1-39.9-78-35.1-135.8,21.7c-8.2-12.8,1.3-29-10.2-44.3c-33.2,0.3-68.5-3.3-104.1,2v280.2c20,0,37.8,0.5,55.6-0.1
	c17.5-0.6,35.5,3.2,56.3-4.9c0-31.3-0.2-62.3,0.1-93.3c0.1-15.7,2.3-31.1,8.6-45.7c12.4-29.2,31.5-36.9,60.5-24.6
	c7.4,3.1,13,11.3,24.5,7.8C1067,641.1,1081.8,608.4,1097.3,573.9L1097.3,573.9z M45,223c22.8,58.2,45.3,115.8,68.8,175.7
	c21.1-11.2,41.7-14.1,58.4-26.4c-0.7-26.6-22.9-47.2-19.6-76.3c19.1,10.3,35.7,19.2,53.4,28.7c7.3-21.3,13.9-40.4,21.2-61.6
	c17.4,24.4,18.8,54.2,37.2,75.9c19.1-9,39.8-11.7,56.9-27.1c-22.5-57.6-44.6-114.1-67-171.7c-22,7.2-40.1,12.7-55.7,22.1
	c-12.8,24.7-12.9,52.6-28.1,76.3c-23.5-13.2-46.3-26-68.1-38.3C81.4,205.3,63.9,212.6,45,223z M1086.4,220.8
	c38.6-16.2,76.9-29.5,63.7-79.6c4.9-5.7,14.8-3.4,17.6-11.6c1.8-7.1,3.1-14.1-1.5-21.7c-23.5-9.3-49.1-6.4-74-7.3
	c-45.2-1.5-60.8,11.7-72.3,57.4c0.7,19.5,14,32.4,25.9,47.2c-14.8,10.4-20.8,22.9-8.5,38c-14.5,9.5-32.3,12.6-32.7,32.5
	c11.9,23.4,11.6,24.1,27.7,30c27.7,10.2,56.3,12.4,84.8,4.3c27.4-7.8,34.7-23.6,27.6-54.4C1132.2,236.9,1107.7,239.6,1086.4,220.8
	L1086.4,220.8z M577.9,109.6c-8.6,5.8-18.7,4-28,5.9c-38.7,7.9-60.5,35.5-58.4,74.2c2.1,38.8,30.4,69,67.8,71.3
	c33.6,2,66-5.8,100.6-12.4c-6.6-64.8-14.3-127-27-189.8c-20.5,4-36.7,7.1-51.4,10C574.7,83.6,584.7,97.2,577.9,109.6L577.9,109.6z
	 M1529.8,148.4c-8.1-11.4-18.9-9.9-27.6-13.3c-7.7-3.1-15.6-6.4-24.2-3.1c-11.9,8.3-6.4,25.6-19.1,35.3c-8.1-2.3-17-5.6-26.2-7.3
	c-42.1-7.8-74.3,9.7-86.4,46.2c-13.1,39.7,3.7,79.3,43.1,95c27.6,11,56.2,19.9,84.1,23.8c8-4.4,9-10.7,10.6-16.3
	C1499.6,254.9,1514.9,200.9,1529.8,148.4L1529.8,148.4z M834.1,94.3c-5.7,16.2-3.4,29.5-3.7,42.5c-0.4,19.2-1.2,38.6,0.3,57.7
	c3.1,38.4,33.8,56.5,69.7,41.8c7.6-3.1,14.3-8.4,22.3-13.1c17.1,17.1,36.7,26,63,17.3c2.9-10.9,10.6-20.5,10.3-30.2
	c-27.7-36.8-2.5-79.3-17.1-114.6h-53.7v84.8c-10.5,10.9-18.3,18.1-32.4,9.7c-11.2-29.5,1.6-62.7-7.4-94.9
	C868.4,91.2,852,92.2,834.1,94.3L834.1,94.3z M428.1,284c26.9,2.4,26.9,2.4,53-7c5.3-9.9,3.5-20.8,3.5-33.3
	c-13.7-5.6-19.9-17.7-22.4-32.5c-1.2-7-3.5-13.9-5.7-20.8c-12.5-40.6-39.4-54-80.1-40.8c-23.9,7.8-41.9,22.6-56.3,44.4
	c7.4,11.4,2.1,28.1,16.1,38.1c17.8-14.5,31.5-34.6,55.2-34.5c6.6,4.4,7.5,8.8,6.2,15.5c-11.1,12.9-29.1,18.7-42.2,30.9
	c-22.2,20.7-21.4,36.3,3.1,58.7C385.4,309,408.2,299.8,428.1,284L428.1,284z M1606.4,278.6c-5.6,9.7-10.5,10.2-15.2,10.1
	c-15.6-0.3-31.3-1.6-46.9-1c-15.5,0.5-28.2,7.1-33.3,23c-4.6,14.3,2.6,27.8,19.6,38.8c15.7,10.2,33.4,12.8,51.2,13.2
	c14,11.8,26,26.1,45.8,26.9c9.2-6.5,16.7-14,23.5-25.4c-8.4-12.4-5.4-25.8,1.5-39.2c3.8-7.5,6.9-15.4,9.8-23.2
	c11.5-31.4,3.9-53.6-25.2-69.9c-27.5-15.4-56.2-20.3-87.9-4.2c-0.8,12.8-14.7,22.4-10.3,38.9
	C1562.8,264.9,1588.8,251.9,1606.4,278.6L1606.4,278.6z M1260.9,181.3c-30.2,20.7-71.5,5.9-88.8,41.7c2.3,39.8,18.2,48.3,82.9,43.7
	c14.4,7.5,28.7,17.1,47,13.8c9.8-7.7,13.7-19.1,18.2-30.1c-3.6-6.2-11-9.8-11.6-20.1c1.5-7.2,4-16.5,5.3-26
	c8.5-61-21.2-90.4-82.6-82c-14.5,2-28,6.2-41.3,18.4c-1.3,11.5-8.8,24.5-2,38.8C1211.6,177.2,1234,154.4,1260.9,181.3L1260.9,181.3z
	 M678.4,103.1c9.7,48.7,6.1,94.4,11.4,142.5c20.7-0.8,39.2,3.2,58.2-5.1c0.6-30.7-13.5-63.4,14.7-87.2c10.6-6.6,18.7,4.4,30.3,2
	c6.2-16.6,12.8-34,19.4-51.7c-27.9-19-48.7-9.5-65.9,10.9c-7.8-5.7-7.8-15.3-18.8-16.7C714.7,99.2,699.4,100.9,678.4,103.1
	L678.4,103.1z M796.7,473.9V342c-13.9-3.5-25.4-5.6-35.8,0.6c-5.9,7.7-0.4,17.8-9.3,25.5c-4.1,0.2-9.9,0.3-15.7,1
	c-34.3,3.8-52.6,22-52.2,51.9c0.4,29.3,20.4,51.6,51.3,54.3C755,477,775.3,477.7,796.7,473.9z M872.4,369
	c-33.3,0.7-58.2,25.3-57,56.3c1.2,30.6,28.1,53.4,61.3,51.9c31.4-1.4,55.3-25,55.2-54.5C931.8,392.2,905.4,368.3,872.4,369
	L872.4,369z M1019.5,378.3c-20.5-11.5-41.2-14.6-61.1-0.7c-13.5,9.4-15.2,23.4-8.4,38.1c5.9,14.3,27,14.1,31,30.6
	c-12.3,8.2-21.6-1-31.6-1.7c-4.7,8.1-4.4,15.9-0.4,23.7c50.8,20.7,78.4,6.9,73.7-35.2c-6.1-15.9-27.5-15-31.9-30.8
	c10.8-10.9,21.5,3.9,30.5-2.6C1024.2,392.9,1023.6,387.2,1019.5,378.3L1019.5,378.3z"/>
<path class="st1" d="M347,471.3h129c2.2,119.7,0.7,239.1,1.1,360.3H362.6c-49.6-53.2-101-108.2-158.5-169.9v169.4H75
	c-1.9-119.7-0.7-239-0.8-359.2c39.8-5,75.6-1.3,112-2.8c51.3,55.2,102,109.7,155.8,167.7c9.2-29.3,3.7-55.9,4.7-81.8
	C347.8,527.8,347,500.4,347,471.3L347,471.3z"/>
<path class="st1" d="M1401.3,833.5c-66-1-129.8,5.3-192.7-4.4c-69.2-10.6-115.8-75.6-112.9-150.3c2.8-72.6,50.4-122.3,123.8-131.2
	c22.9-2.8,45.3,3.9,69.1,1.4c8.3-26.9-1.2-55.1,6.7-83.3c35.4-2.4,69.6-2.9,106.1,0.5C1401.3,587.7,1401.3,707.5,1401.3,833.5z
	 M1291.4,647.7c-33.9-14-57.6-10.2-73.1,10.3c-14.2,18.7-14.5,45-0.7,63.8c14.1,19.3,39,24,72.5,13.2
	C1293.7,706.9,1291.6,678.3,1291.4,647.7L1291.4,647.7z"/>
<path class="st1" d="M1568,729.5c-0.4-21.8-14.1-28.6-25.9-36.5c-17-11.4-34.7-21.6-51.4-33.3c-74.4-52.2-47-157.2,23.6-184.1
	c60.9-23.1,115.2-10.6,165.7,29.2c3.9,30.5,1.9,60.3,1.2,92.7c-36.6-16.4-65.8-60.4-110.4-30.4c-7.7,21.1,2,31.6,14.5,40.1
	c12.9,8.8,26.6,16.3,40,24.4c14.4,8.7,28.7,17.6,40.8,29.5c50.3,49.6,37.7,126.5-26.6,159.9c-39,20.3-81.3,21-123.3,15.2
	c-23.4-3.2-47.6-7.2-69.2-23.5c-3.2-29.7-2.6-60.5-0.3-91.9C1487.6,735.8,1526.6,765.1,1568,729.5L1568,729.5z"/>
<path class="st1" d="M800.9,708.1h-163c-0.4,30.6,8,42.8,34.7,51.2c31.2,9.9,61.6,3.5,92.2-4.3c11.3-2.9,21.3-11.1,35.1-8.9
	c4.9,21.5,2.4,42.9,1.4,67.4c-63,27.8-127.5,38.1-193.7,11c-53.7-22-87.4-79.1-85.3-138.7c2.3-61.9,39-112.9,94.7-131.8
	c56.1-18.9,116.8-2.8,154,41C795.6,624.1,803.9,653.7,800.9,708.1L800.9,708.1z M701,661.8c-2.3-24.9-9.9-42.4-36.8-45.9
	c-24,5.8-32.3,21.5-29.7,47.4C656.1,664.9,677,665.9,701,661.8z"/>
<path class="st1" d="M1097.3,573.9c-15.6,34.5-30.3,67.2-44.5,98.7c-11.5,3.4-17.1-4.7-24.5-7.8c-29-12.4-48.1-4.7-60.5,24.6
	c-6.2,14.6-8.4,30-8.6,45.7c-0.3,31-0.1,62-0.1,93.3c-20.8,8.1-38.8,4.3-56.3,4.9c-17.8,0.6-35.6,0.1-55.6,0.1V553.2
	c35.7-5.2,70.9-1.7,104.1-2c11.5,15.3,1.9,31.5,10.2,44.3C1019.4,538.8,1046.3,534.1,1097.3,573.9L1097.3,573.9z"/>
<path class="st1" d="M45,223c18.9-10.4,36.4-17.7,57.3-22.6c21.8,12.2,44.6,25,68.1,38.3c15.2-23.7,15.3-51.7,28.1-76.3
	c15.6-9.4,33.7-14.9,55.7-22.1c22.5,57.6,44.5,114.1,66.9,171.6C304,327.3,283.3,330,264.2,339c-18.4-21.8-19.9-51.5-37.2-75.9
	c-7.3,21.2-13.8,40.2-21.2,61.6c-17.7-9.5-34.3-18.4-53.4-28.7c-3.3,29.2,18.9,49.7,19.6,76.3c-16.7,12.4-37.3,15.2-58.4,26.4
	C90.3,338.8,67.8,281.1,45,223L45,223z"/>
<path class="st1" d="M1086.4,220.8c21.4,18.7,45.8,16.1,58.4,34.9c7,30.7-0.3,46.5-27.6,54.4c-28.5,8.2-57.1,5.9-84.8-4.3
	c-16.1-5.9-15.9-6.6-27.7-30c0.3-19.9,18.2-23,32.7-32.5c-12.4-15.1-6.4-27.6,8.5-38c-11.8-14.8-25.2-27.7-25.9-47.2
	c11.5-45.8,27-58.9,72.3-57.4c24.9,0.8,50.5-2,74,7.3c4.7,7.6,3.4,14.7,1.5,21.7c-2.7,8.2-12.7,5.9-17.6,11.6
	C1163.3,191.4,1125,204.6,1086.4,220.8z M1071.9,142.6c-1.5,24.4,3.4,33,17,31.6c11.2-1.2,17.1-8.1,17-19.1
	C1105.9,141.7,1096.5,138,1071.9,142.6L1071.9,142.6z M1056.1,281.6c12.7,12,26.3,13.3,43.5,0.4c-8.3-14.8-21.1-16.6-32.2-19.5
	C1059.2,266.5,1054.5,271.2,1056.1,281.6z"/>
<path class="st1" d="M577.9,109.6c6.8-12.4-3.2-26,3.6-40.8c14.7-2.9,30.8-6,51.4-10c12.7,62.8,20.4,125,27,189.8
	c-34.6,6.6-67,14.4-100.6,12.4c-37.4-2.3-65.7-32.5-67.8-71.3s19.7-66.4,58.4-74.2C559.2,113.5,569.3,115.3,577.9,109.6L577.9,109.6
	z M590.8,161.8c-30.6,0.1-30.6,0.1-40.9,26c13.9,26.2,13.9,26.2,44.4,18.1C593.2,192.3,592.1,178.3,590.8,161.8z"/>
<path class="st1" d="M1529.8,148.4c-14.9,52.5-30.1,106.5-45.6,160.4c-1.6,5.6-2.7,11.9-10.6,16.3c-27.9-4-56.5-12.8-84.1-23.8
	c-39.4-15.7-56.2-55.3-43.1-95c12.1-36.6,44.3-54,86.4-46.2c9.2,1.7,18.1,5,26.2,7.3c12.7-9.7,7.2-27,19.1-35.3
	c8.6-3.3,16.5,0,24.2,3.1C1510.8,138.5,1521.7,137,1529.8,148.4z M1436.4,261.8c3.4-18.1,15.9-32.1,5.6-48.8
	c-29.7-3.2-39.4,1.8-41.1,20.2C1399.3,250.6,1406.2,256.7,1436.4,261.8L1436.4,261.8z"/>
<path class="st1" d="M834.1,94.3c17.9-2.1,34.3-3,51.2,1c9,32.2-3.8,65.4,7.4,94.9c14.1,8.4,21.9,1.2,32.4-9.7V95.7h53.7
	c14.6,35.3-10.5,77.8,17.1,114.6c0.3,9.7-7.4,19.3-10.3,30.2c-26.2,8.6-45.8-0.3-63-17.3c-8,4.8-14.7,10-22.3,13.1
	c-35.8,14.7-66.5-3.4-69.7-41.8c-1.6-19.1-0.7-38.5-0.3-57.7C830.7,123.7,828.5,110.5,834.1,94.3L834.1,94.3z"/>
<path class="st1" d="M428.1,284c-19.9,15.8-42.7,25-69.5,18.6c-24.4-22.4-25.3-38-3.1-58.7c13.1-12.2,31.1-18.1,42.2-30.9
	c1.3-6.7,0.4-11.1-6.2-15.5c-23.7,0-37.4,20-55.2,34.5c-13.9-10-8.7-26.6-16.1-38.1c14.4-21.8,32.3-36.6,56.3-44.4
	c40.7-13.2,67.5,0.3,80.1,40.8c2.1,6.9,4.5,13.7,5.7,20.8c2.5,14.8,8.7,26.9,22.4,32.5c0,12.6,1.8,23.4-3.5,33.3
	C455,286.4,455,286.4,428.1,284L428.1,284z M397.2,274.8c22.9-8.6,15.6-21,9.8-36.9C392.3,248.3,382.3,256.3,397.2,274.8z"/>
<path class="st1" d="M1606.4,278.6c-17.7-26.7-43.6-13.7-67.4-12.1c-4.4-16.5,9.6-26.2,10.3-38.9c31.7-16.1,60.4-11.2,87.9,4.2
	c29.1,16.3,36.8,38.5,25.2,69.9c-2.9,7.9-6,15.8-9.8,23.2c-6.9,13.4-9.9,26.8-1.5,39.2c-6.8,11.4-14.3,19-23.5,25.4
	c-19.7-0.8-31.7-15.1-45.8-26.9c-17.9-0.4-35.5-3.1-51.2-13.2c-17-11-24.1-24.4-19.6-38.8c5.1-15.9,17.8-22.4,33.3-23
	c15.6-0.5,31.2,0.8,46.9,1C1595.9,288.8,1600.8,288.4,1606.4,278.6L1606.4,278.6z M1578.6,339.5c9.6-7.7,11.9-15.7,10.5-25.3
	c-13.6-3.9-22.5-1.2-27.9,10.1C1561.1,335.2,1566.7,339.6,1578.6,339.5L1578.6,339.5z"/>
<path class="st1" d="M1260.9,181.3c-26.8-27-49.3-4.2-72.8-1.7c-6.8-14.3,0.7-27.3,2-38.8c13.3-12.2,26.8-16.5,41.3-18.4
	c61.4-8.4,91.2,21,82.6,82c-1.3,9.5-3.8,18.8-5.3,26c0.6,10.3,8,13.8,11.6,20.1c-4.5,11-8.4,22.4-18.2,30.1
	c-18.3,3.3-32.6-6.3-47-13.8c-64.7,4.5-80.6-3.9-82.9-43.7C1189.4,187.3,1230.6,202.1,1260.9,181.3L1260.9,181.3z M1247,217.5
	c-12.2-1.5-21,2.3-24.9,14.4c3.4,11.7,10.3,15.9,21.8,12C1250.9,235.8,1251.9,227.1,1247,217.5z"/>
<path class="st1" d="M678.4,103.1c21-2.3,36.3-3.9,49.3-5.3c11,1.4,11,11,18.8,16.7c17.2-20.4,38-29.8,65.9-10.9
	c-6.6,17.7-13.2,35.1-19.4,51.7c-11.6,2.4-19.7-8.6-30.3-2c-28.2,23.8-14.1,56.5-14.7,87.2c-19,8.2-37.5,4.2-58.2,5.1
	C684.5,197.5,688.1,151.8,678.4,103.1L678.4,103.1z"/>
<path class="st1" d="M796.7,473.9c-21.5,3.9-41.7,3.1-61.6,1.4c-30.9-2.7-51-25.1-51.3-54.3c-0.4-29.9,17.9-48.1,52.2-51.9
	c5.8-0.6,11.6-0.7,15.7-1c8.8-7.7,3.3-17.7,9.3-25.5c10.3-6.2,21.8-4.1,35.8-0.6C796.7,385.2,796.7,428.8,796.7,473.9L796.7,473.9z
	 M754.5,406.7c-16.5-4.7-26.9-0.5-26.9,14.8c0,16.6,10.2,22,25.7,17.6C759.6,428.6,758.1,418.6,754.5,406.7L754.5,406.7z"/>
<path class="st1" d="M872.4,369c33-0.7,59.4,23.2,59.5,53.8c0.1,29.5-23.8,53.1-55.2,54.5c-33.2,1.5-60.1-21.3-61.3-51.9
	C814.2,394.3,839.1,369.7,872.4,369L872.4,369z M863.5,407.3c-7.6,11.9-7.8,21.6,0.6,31.9c7.6,3.4,15.2,4.2,22.3-4
	c4.6-8.5,4.8-17.4-2.4-27.2C878.8,404.2,872.2,403.5,863.5,407.3L863.5,407.3z"/>
<path class="st1" d="M1019.5,378.3c4,8.8,4.6,14.6,1.8,21.4c-8.9,6.5-19.7-8.4-30.5,2.6c4.4,15.7,25.8,14.9,31.9,30.8
	c4.6,42-22.9,55.9-73.7,35.2c-4-7.8-4.3-15.6,0.4-23.7c10.1,0.8,19.3,9.9,31.6,1.7c-4-16.5-25.1-16.3-31-30.6
	c-6.8-14.7-5.1-28.6,8.4-38.1C978.3,363.7,999,366.8,1019.5,378.3L1019.5,378.3z"/>
<path class="st0" d="M1291.4,647.7c0.3,30.7,2.3,59.2-1.3,87.2c-33.4,10.8-58.3,6.1-72.5-13.2c-13.8-18.8-13.5-45.1,0.7-63.8
	C1233.8,637.5,1257.5,633.7,1291.4,647.7L1291.4,647.7z M1252.4,682.7c-8.8,8.1-8.8,8.1,0.3,15.2
	C1257.8,692.7,1256.9,687.7,1252.4,682.7z"/>
<path class="st0" d="M701,661.8c-23.9,4.1-44.9,3.1-66.5,1.5c-2.6-25.9,5.7-41.6,29.7-47.4C691.1,619.4,698.7,636.9,701,661.8z"/>
<path class="st0" d="M1071.9,142.6c24.6-4.6,34-1,34.1,12.5c0.1,11-5.9,17.9-17,19.1C1075.3,175.6,1070.4,167,1071.9,142.6
	L1071.9,142.6z"/>
<path class="st0" d="M1056.1,281.6c-1.6-10.4,3.1-15.1,11.4-19.1c11.1,2.9,23.8,4.7,32.2,19.5
	C1082.5,294.9,1068.9,293.6,1056.1,281.6z"/>
<path class="st0" d="M590.8,161.8c1.3,16.6,2.4,30.5,3.4,44.1c-30.5,8.1-30.5,8.1-44.4-18.1C560.2,161.9,560.2,161.9,590.8,161.8z"
	/>
<path class="st0" d="M1436.4,261.8c-30.2-5.1-37.1-11.2-35.5-28.6c1.7-18.4,11.4-23.4,41.1-20.2
	C1452.3,229.7,1439.9,243.7,1436.4,261.8L1436.4,261.8z"/>
<path class="st0" d="M397.2,274.8c-14.9-18.5-4.9-26.5,9.8-36.9C412.8,253.8,420.1,266.2,397.2,274.8z"/>
<path class="st0" d="M1578.6,339.5c-11.9,0.1-17.4-4.3-17.4-15.3c5.3-11.3,14.3-14,27.9-10.1
	C1590.5,323.8,1588.2,331.8,1578.6,339.5z"/>
<path class="st0" d="M1247,217.5c5,9.6,3.9,18.3-3.1,26.4c-11.5,3.9-18.4-0.3-21.8-12C1226,219.8,1234.8,216,1247,217.5z"/>
<path class="st0" d="M754.5,406.7c3.7,11.9,5.1,21.9-1.2,32.5c-15.5,4.4-25.8-1.1-25.7-17.6C727.6,406.2,738,402.1,754.5,406.7
	L754.5,406.7z"/>
<path class="st0" d="M863.5,407.3c8.7-3.8,15.3-3.2,20.5,0.8c7.2,9.8,7,18.7,2.4,27.2c-7.1,8.1-14.7,7.4-22.3,4
	C855.8,428.9,855.9,419.2,863.5,407.3L863.5,407.3z"/>
<g class="st2">
	<path class="st3" d="M0,910.8V0.4h1755.8c0.4,4.8,1.3,9.6,1.3,14.3c0,290,0,579.9-0.1,869.9c0,8.1,2.2,16.8-6.4,27.4h-39.7H39.7
		C26.4,912.1,13.2,911.2,0,910.8L0,910.8z M516.5,794.1c82.4,101,183.1,92.5,285,59.1c15.1,0.1,21.2,12.3,30.6,13.3h136.3
		c17.1-8.4,22.2-20.7,21.8-36.6c-0.5-20.4,0.1-40.9-0.1-61.4c-0.2-22.9,5.3-44.5,11.6-64.5c12.5-5.2,21.3-1.7,28.6,5.3
		c8.5,8,21.3,3.8,30.3,12c1.9,3.7,4.7,7.7,6.1,12.3c27.4,89.4,85.1,133.3,177.1,134c44.5,0.4,89.1-0.4,133.6,0.4
		c23.1,0.4,45.3-0.4,63.1-15.2c12.3,4,22.4,7.9,32.8,10.7c64.5,17.1,128,18.7,188.7-14.3c50.1-27.2,77.5-91.4,66.8-146.9
		c-4.3-22.1-19.2-38.4-25.4-60.6c14.2-24,17.5-50.9,15.6-78.9c-0.7-10.8-0.8-21.7,0-32.5c2.4-31.2-12.1-52-37.5-68.6
		c-20.3-13.3-43.8-18.8-65.2-31.2c9.5-6.4,21.7-0.6,30.2-8c14.8-13.9,30.5-27.2,43.7-46.6c-4.4-34.4,6.3-69,14.7-100.7
		c-15.8-82.5-79.8-89.6-143.3-97c0.4-21.5,14.2-42.7-11.5-63.2c-26.8-8.4-57.3-27.5-95.2-17.8c-6.4,8-13,16.3-19.9,24.9
		c-15,0.7-29.4,0.6-43.7,2.1c-15.3,1.6-28.7,11.8-43.7,11.7c-52.6-47.3-52.6-47.3-136.3-49.1c-63.9-31.2-125.7-26.3-189.7-9
		c-7.2-5.6-15.7-12.1-25.5-19.7c-105.8,3-212.5-5.8-318.4,7.6c-9.1-19.1-17-35.4-32-40.7c-17.4-4.9-29.2,5.2-42.6,4.4
		c-36-2.1-60.4,11.8-65.6,50.9c-31.5,7.4-50.8,31.9-74.2,49.8c-61-40.8-112.2-13.4-163.3,22.9c-10.5-21.9-19.6-42-42.4-50.8
		c-29.6,9-59.8,16.9-85.8,34.8c-13.7,11.1-8,33.4-26.2,43.5c-14.5-6.4-29.7-13.1-43.1-19c-30.8,6.7-55.2,23-80.8,31.6
		c-7.4,9.1-12,17.3-13.8,30C31.2,292,60.2,361.3,89.3,430.8c-41.2,8-50.3,18.5-52.6,59.7c-0.1,1.2,0,2.4,0,3.6
		c0.1,113.1,0.2,226.3,0.5,339.4c0,3.5,1.6,7,2.3,10c6.7,9.3,13.6,17.5,27.5,24.1c43.2,0,90-0.1,136.9,0.1
		c16.4,0.1,27.3-7.4,33.3-22c4.5-25.7-3.4-52.3,7.2-83.5c38.4,37.8,73.1,72,104.8,103.2h144.4C518.5,846.7,509.7,821.1,516.5,794.1
		L516.5,794.1z"/>
	<path class="st3" d="M933.4,348.7c-31.6-10.4-60.7-24.4-90-9.8c-14-9.7-15.9-25.4-33.1-33.2c-19.3-4-43.1-1.9-63.7-1.1
		c-17,5.4-21,20.1-30.8,27.9c-10.1,5.2-20.2,9.5-29.4,15.1c-28.7,17.6-43.9,61.1-35.1,99.3c6.5,28.5,38.7,55.3,69.6,59.8
		c28.5,4.2,56.5,8.8,85.3,0.5c10.6-3.1,23.1-3.2,40.6,3.9c-30.6,13.3-39.8,35.3-38.2,66.9c-45.9-39.6-90.7-67.6-150.8-65.7
		c-58.8,1.8-101.8,29.3-141.5,73.9c-9-50,4.5-96.3-11.1-144.3c-61.7-13-122.3-10.5-179.8-2.5c-25,33.3-7.2,68-18.7,102.3
		c-35.2-38.2-68.4-74.3-99.2-107.7h-71.6l-0.9-5.1c17.2-7.7,34-16.6,51.6-22.9c21-7.5,19.9-31.6,32.7-42.2
		c17.6-5.9,24.8,12.3,38.6,11.8c16.9-1.6,32.2-8.6,47.8-14.9c26.6-10.6,52.1-25.2,82.6-21.3c9.9,1.3,18.4-4.7,27.3-8.4
		c13.3-5.5,26.6-11.9,41.2-12.3c26.3-0.7,49.4-8.5,66.9-28.8c44.6,15.8,87.5,3.2,129.7-2.5c26.4-3.6,52.4-5.1,78.7-5.5
		c17.5-0.2,33.3-3.3,45.4-17.2c7.4-21.1-0.6-43.3,5.3-64.1c10.4,0,11.7,8.2,14.5,14.4c22.7,51.3,47.7,67.4,101,58.6
		c24-3.9,44.6,0.2,66.6,10.1c8.3,15.1,16.2,31.1,33.1,47.2C972,331.6,953.7,339.7,933.4,348.7L933.4,348.7z"/>
	<path class="st3" d="M1036.4,510.1c-2.5-9.5,2.6-13.5,6.6-17.7c18.6-19.1,22.4-41,15.5-66.4c-6.6-24.4-3.7-49.4-2-76.8
		c24.6-1.2,47.3-0.6,69.5-3.7c24.3-3.3,36.8-25.6,56.3-40.5c29.6-1.9,60.7-5.1,90.6,7.5c21.3,9,42.1,6.4,62.2-2.5
		c40.9,31.3,88.7,39.2,134.9,51.6c3.4,0.9,8.1-0.5,10.6,1.3c35.9,26.2,83.2,29.9,122.1,61.9c-31.8,2.9-59.5,4.7-86.2,13
		c-27.9,8.7-52.4,22.5-72.8,43.5c-9.9-10.2-1.5-23.2-5.8-27.2c-16.3-21.4-33.5-27.2-54.1-26.9c-32.4,0.5-64.9,0.1-95.2,0.1
		c-14.1,5.2-21.8,14.2-28.5,24.1c-6.4,17.5,1.3,36.4-8.5,58.1c-42.1,3.9-87.9,6.3-126.4,35.2C1097.5,524.1,1067,515,1036.4,510.1
		L1036.4,510.1z"/>
	<path class="st3" d="M1252.4,682.7c4.5,5,5.5,10,0.3,15.2C1243.6,690.8,1243.6,690.8,1252.4,682.7z"/>
	<path class="st4" d="M0,910.8c13.2,0.4,26.4,1.2,39.6,1.2c557.1,0.1,1114.1,0,1671.2,0h39.7c8.6-10.6,6.4-19.3,6.4-27.4
		c0.1-290,0.1-579.9,0.1-869.9c0-4.8-0.8-9.6-1.3-14.3c2.2,1.6,7.5-3.7,7.3,3.6c-0.3,9.6-0.1,19.3-0.1,28.9V918H28.8
		C10.3,918,10.3,918,0,910.8L0,910.8z"/>
</g>
</svg>
